<svg width="44" height="44" viewBox="0 0 44 44" fill="none" xmlns="http://www.w3.org/2000/svg">
<rect width="44" height="44" rx="7" fill="#464646"/>
<path d="M7 10.3333C7 8.4925 8.4925 7 10.3333 7H33.6667C35.5075 7 37 8.4925 37 10.3333V33.6667C37 35.5075 35.5075 37 33.6667 37H10.3333C8.4925 37 7 35.5075 7 33.6667V10.3333Z" fill="#03A9F4"/>
<path d="M18.6801 17.9785H17.0117V21.6735H18.6559C19.1117 21.6735 19.4642 21.5243 19.7142 21.226C19.9642 20.9277 20.0884 20.4935 20.0884 19.9235C20.0884 19.3318 19.9609 18.8618 19.7059 18.5118C19.4509 18.1618 19.1084 17.9843 18.6801 17.9785Z" fill="#020F16"/>
<path d="M9.5 9.5V34.5H34.5V9.5H9.5ZM21.4708 22.6575C20.7825 23.3308 19.8275 23.6667 18.6067 23.6667H17.0117V27.8333H14.6192V15.9842H18.6558C19.8275 15.9842 20.7625 16.3483 21.4592 17.075C22.1558 17.8017 22.505 18.7458 22.505 19.9067C22.505 21.0675 22.16 21.9842 21.4708 22.6575ZM29.235 27.28C28.6442 27.7575 27.8675 27.9958 26.9075 27.9958C26.2617 27.9958 25.6917 27.87 25.1983 27.6175C24.705 27.365 24.3175 27.0133 24.0383 26.5633C23.7592 26.1133 23.6192 25.6275 23.6192 25.1067H25.8083C25.82 25.5075 25.9125 25.8092 26.0892 26.01C26.2658 26.2108 26.5542 26.3108 26.9558 26.3108C27.5742 26.3108 27.8833 26.0317 27.8833 25.4725C27.8833 25.2775 27.79 25.0967 27.6025 24.9317C27.415 24.7667 27 24.5433 26.3542 24.2608C25.405 23.8758 24.7525 23.4775 24.3967 23.0642C24.0408 22.6508 23.8633 22.1392 23.8633 21.5258C23.8633 20.755 24.1417 20.1192 24.6975 19.6175C25.2533 19.1158 25.9908 18.865 26.9067 18.865C27.8717 18.865 28.645 19.115 29.2258 19.6133C29.8067 20.1117 30.0967 20.7825 30.0967 21.6233H27.7933C27.7933 20.9075 27.4958 20.5492 26.8983 20.5492C26.6542 20.5492 26.4542 20.625 26.2958 20.7767C26.1375 20.9283 26.06 21.1408 26.06 21.4117C26.06 21.6067 26.1467 21.7792 26.3208 21.9283C26.495 22.0775 26.9033 22.2908 27.55 22.5675C28.4892 22.915 29.1517 23.3017 29.54 23.7275C29.9283 24.1533 30.1217 24.7058 30.1217 25.3833C30.1217 26.1708 29.8258 26.8025 29.235 27.28Z" fill="#020F16"/>
</svg>
