<svg width="44" height="44" viewBox="0 0 44 44" fill="none" xmlns="http://www.w3.org/2000/svg">
<rect width="44" height="44" rx="7" fill="#464646"/>
<path d="M6.16663 10.3333C6.16663 8.4925 7.65913 7 9.49996 7H32.8333C34.6741 7 36.1666 8.4925 36.1666 10.3333V33.6667C36.1666 35.5075 34.6741 37 32.8333 37H9.49996C7.65913 37 6.16663 35.5075 6.16663 33.6667V10.3333Z" fill="#E91E63"/>
<path d="M23.9025 20.7939C23.4791 20.7939 23.17 20.9648 22.975 21.3064C22.78 21.6481 22.6816 22.2564 22.6816 23.1298V23.7398C22.6816 24.6081 22.7741 25.2148 22.9583 25.5589C23.1425 25.9031 23.455 26.0756 23.8941 26.0756C24.35 26.0756 24.695 25.8723 24.9275 25.4656V21.4456C24.7 21.0106 24.3583 20.7939 23.9025 20.7939Z" fill="#16020B"/>
<path d="M8.66663 9.5V34.5H33.6666V9.5H8.66663ZM18.7841 27.8333H16.3916V15.9842H18.7841V27.8333ZM27.2475 27.8333H25.1558L25.05 26.9383C24.5783 27.6442 23.9708 27.9967 23.2266 27.9967C22.3041 27.9967 21.6 27.6442 21.115 26.9383C20.63 26.2325 20.3816 25.1967 20.37 23.83V23.1625C20.37 21.72 20.6141 20.6425 21.1025 19.9317C21.5908 19.2208 22.3016 18.8658 23.235 18.8658C23.9133 18.8658 24.4766 19.1592 24.9275 19.745V15.3333H27.2466V27.8333H27.2475Z" fill="#16020B"/>
</svg>
