<svg width="44" height="44" viewBox="0 0 44 44" fill="none" xmlns="http://www.w3.org/2000/svg">
<rect width="44" height="44" rx="7" fill="#464646"/>
<path d="M7 10.3333C7 8.4925 8.4925 7 10.3333 7H33.6667C35.5075 7 37 8.4925 37 10.3333V33.6667C37 35.5075 35.5075 37 33.6667 37H10.3333C8.4925 37 7 35.5075 7 33.6667V10.3333Z" fill="#FF5722"/>
<path d="M9.5 9.5V34.5H34.5V9.5H9.5ZM21.7425 27.8333L21.1075 25.4083H17.8442L17.21 27.8333H14.6792L18.3817 15.9842H20.5708L24.2983 27.8333H21.7425ZM27.7083 27.8333H25.3975V19.0283H27.7083V27.8333ZM27.46 17.6283C27.2342 17.8617 26.93 17.9783 26.5442 17.9783C26.1583 17.9783 25.8542 17.8617 25.6283 17.6283C25.4025 17.395 25.2908 17.1017 25.2908 16.7492C25.2908 16.3908 25.405 16.0983 25.6325 15.87C25.86 15.6417 26.165 15.5283 26.5442 15.5283C26.9233 15.5283 27.2275 15.6425 27.4558 15.87C27.6842 16.0975 27.7975 16.3908 27.7975 16.7492C27.7975 17.1017 27.685 17.395 27.46 17.6283Z" fill="#1C0802"/>
<path d="M18.3658 23.4143H20.5792L19.4725 19.1909L18.3658 23.4143Z" fill="#1C0802"/>
</svg>
