<svg width="1100" height="853" viewBox="0 0 1100 853" fill="none" xmlns="http://www.w3.org/2000/svg">
<path d="M470.573 840.613C421.34 854.91 374.095 858.478 340.863 825.576C307.631 792.675 302.816 798.567 267.169 778.126C231.522 757.684 196.674 734.949 162.627 709.919C128.579 684.889 94.5409 656.579 60.5117 624.987C26.4826 593.396 7.14576 556.924 2.50113 515.573C-2.14351 474.222 1.93684 433.879 14.7422 394.545C27.5475 355.211 52.6353 321.489 90.0056 293.378C127.376 265.268 153.65 232.862 168.829 196.159C184.007 159.456 209.089 127.702 244.075 100.898C279.062 74.0932 318.788 54.8477 363.253 43.1615C407.718 31.4752 453.374 19.4643 500.222 7.12852C547.069 -5.2072 591.082 2.79025 632.261 31.1209C673.441 59.4515 713.452 79.9049 752.295 92.481C791.138 105.057 839.519 111.755 897.437 112.573C955.356 113.392 992.192 134.164 1007.95 174.891C1023.7 215.617 1033.11 255.342 1036.18 294.064C1039.24 332.786 1045.49 369.549 1054.91 404.352C1064.33 439.156 1074.54 476.258 1085.54 515.659C1096.54 555.059 1096.82 595.086 1086.39 635.739C1075.97 676.392 1121.64 656.256 1085.07 684.369C1048.49 712.481 1021.98 759.337 988.566 790.083C955.156 820.829 888.587 844.762 837.795 849.213C787.002 853.664 713.771 833.84 666.979 826.491C620.187 819.142 519.807 826.315 470.573 840.613Z" fill="url(#paint0_linear_101_38)"/>
<defs>
<linearGradient id="paint0_linear_101_38" x1="798.255" y1="0.619988" x2="516.897" y2="852.967" gradientUnits="userSpaceOnUse">
<stop stop-color="#CEB6FF"/>
<stop offset="1" stop-color="#421F77"/>
</linearGradient>
</defs>
</svg>
