<svg width="348" height="231" viewBox="0 0 348 231" fill="none" xmlns="http://www.w3.org/2000/svg">
<rect x="5" y="13" width="324" height="212" stroke="#DB2777" stroke-width="4"/>
<rect y="8" width="10" height="10" fill="white"/>
<rect y="221" width="10" height="10" fill="white"/>
<rect x="324" y="220" width="10" height="10" fill="white"/>
<rect x="301" width="47" height="23" rx="4" fill="url(#paint0_linear_153_20)"/>
<path d="M309.757 15.0611V14.1193L313.912 7.54545H314.595V9.00426H314.134L310.994 13.9716V14.0455H316.589V15.0611H309.757ZM314.207 17V14.7749V14.3363V7.54545H315.297V17H314.207ZM318.098 15.0611V14.1193L322.253 7.54545H322.936V9.00426H322.474L319.335 13.9716V14.0455H324.93V15.0611H318.098ZM322.548 17V14.7749V14.3363V7.54545H323.638V17H322.548ZM326.679 19.6591V9.90909H327.731V11.0355H327.861C327.941 10.9124 328.051 10.7554 328.193 10.5646C328.338 10.3707 328.544 10.1984 328.812 10.0476C329.082 9.8937 329.449 9.81676 329.91 9.81676C330.507 9.81676 331.034 9.96603 331.489 10.2646C331.945 10.5631 332.3 10.9863 332.556 11.5341C332.811 12.0819 332.939 12.7282 332.939 13.473C332.939 14.224 332.811 14.8749 332.556 15.4258C332.3 15.9736 331.946 16.3983 331.494 16.6999C331.041 16.9985 330.52 17.1477 329.929 17.1477C329.473 17.1477 329.109 17.0723 328.835 16.9215C328.561 16.7676 328.35 16.5937 328.202 16.3999C328.055 16.2029 327.941 16.0398 327.861 15.9105H327.768V19.6591H326.679ZM327.75 13.4545C327.75 13.9901 327.828 14.4625 327.985 14.8718C328.142 15.2781 328.372 15.5966 328.673 15.8274C328.975 16.0552 329.344 16.169 329.781 16.169C330.237 16.169 330.617 16.049 330.921 15.8089C331.229 15.5658 331.46 15.2396 331.614 14.8303C331.771 14.4179 331.849 13.9593 331.849 13.4545C331.849 12.956 331.772 12.5066 331.618 12.1065C331.468 11.7034 331.238 11.3848 330.931 11.1509C330.626 10.9139 330.243 10.7955 329.781 10.7955C329.338 10.7955 328.965 10.9078 328.664 11.1325C328.362 11.354 328.135 11.6649 327.981 12.065C327.827 12.462 327.75 12.9252 327.75 13.4545ZM335.121 9.90909L336.82 12.8082L338.519 9.90909H339.775L337.485 13.4545L339.775 17H338.519L336.82 14.2486L335.121 17H333.866L336.118 13.4545L333.866 9.90909H335.121Z" fill="white"/>
<defs>
<linearGradient id="paint0_linear_153_20" x1="324.5" y1="0" x2="324.5" y2="23" gradientUnits="userSpaceOnUse">
<stop stop-color="#282828"/>
<stop offset="1" stop-color="#141414"/>
</linearGradient>
</defs>
</svg>
