<svg width="44" height="44" viewBox="0 0 44 44" fill="none" xmlns="http://www.w3.org/2000/svg">
<rect width="44" height="44" rx="7" fill="#464646"/>
<path d="M22.6667 16.1667H16.0001C12.7784 16.1667 10.1667 13.555 10.1667 10.3333C10.1667 7.11167 12.7784 4.5 16.0001 4.5H22.6667V16.1667Z" fill="url(#paint0_linear_64_121)"/>
<path d="M21.8334 27.8332H16.0001C12.7784 27.8332 10.1667 25.2215 10.1667 21.9998C10.1667 18.7782 12.7784 16.1665 16.0001 16.1665H21.8334V27.8332Z" fill="url(#paint1_linear_64_121)"/>
<path d="M16.0001 39.5002C12.7784 39.5002 10.1667 36.8885 10.1667 33.6668C10.1667 30.4452 12.7784 27.8335 16.0001 27.8335H21.8334V33.6668C21.8334 36.8885 19.2217 39.5002 16.0001 39.5002Z" fill="url(#paint2_linear_64_121)"/>
<path d="M27.6666 16.1667H21.8333V4.5H27.6666C30.8883 4.5 33.4999 7.11167 33.4999 10.3333C33.4999 13.555 30.8883 16.1667 27.6666 16.1667Z" fill="url(#paint3_linear_64_121)"/>
<path d="M27.6666 27.8332C30.8882 27.8332 33.4999 25.2215 33.4999 21.9998C33.4999 18.7782 30.8882 16.1665 27.6666 16.1665C24.4449 16.1665 21.8333 18.7782 21.8333 21.9998C21.8333 25.2215 24.4449 27.8332 27.6666 27.8332Z" fill="url(#paint4_linear_64_121)"/>
<defs>
<linearGradient id="paint0_linear_64_121" x1="14.5909" y1="2.9175" x2="20.1859" y2="18.2883" gradientUnits="userSpaceOnUse">
<stop stop-color="#F44F5A"/>
<stop offset="0.443" stop-color="#EE3D4A"/>
<stop offset="1" stop-color="#E52030"/>
</linearGradient>
<linearGradient id="paint1_linear_64_121" x1="14.0334" y1="14.1965" x2="19.5951" y2="29.4757" gradientUnits="userSpaceOnUse">
<stop stop-color="#AE4CD5"/>
<stop offset="1" stop-color="#9331BF"/>
</linearGradient>
<linearGradient id="paint2_linear_64_121" x1="13.3417" y1="23.9643" x2="19.1842" y2="40.0143" gradientUnits="userSpaceOnUse">
<stop stop-color="#33C481"/>
<stop offset="1" stop-color="#21A366"/>
</linearGradient>
<linearGradient id="paint3_linear_64_121" x1="23.9149" y1="2.42667" x2="29.4324" y2="17.585" gradientUnits="userSpaceOnUse">
<stop stop-color="#F09CA2"/>
<stop offset="1" stop-color="#EB6773"/>
</linearGradient>
<linearGradient id="paint4_linear_64_121" x1="24.9283" y1="14.4765" x2="30.0474" y2="28.5415" gradientUnits="userSpaceOnUse">
<stop stop-color="#32BDEF"/>
<stop offset="1" stop-color="#1EA2E4"/>
</linearGradient>
</defs>
</svg>
