<svg width="44" height="44" viewBox="0 0 44 44" fill="none" xmlns="http://www.w3.org/2000/svg">
<rect width="44" height="44" rx="7" fill="#464646"/>
<path opacity="0.35" d="M11.6849 3.6665H33.6666C34.5866 3.6665 35.3333 4.41317 35.3333 5.33317V15.3332C35.3333 16.2532 34.5866 16.9998 33.6666 16.9998H21.9999L10.7999 5.79984C10.0133 5.01317 10.5699 3.6665 11.6849 3.6665Z" fill="black"/>
<path d="M10.3334 17H22.0001L33.2001 28.2C33.9867 28.9867 33.4301 30.3333 32.3167 30.3333H10.3334C9.41341 30.3333 8.66675 29.5867 8.66675 28.6667V18.6667C8.66675 17.7467 9.41341 17 10.3334 17Z" fill="black"/>
<path opacity="0.35" d="M8.66675 18.6667V28.6767C8.66675 29.7383 9.08841 30.755 9.83841 31.505L19.8667 41.5333C20.6534 42.32 22.0001 41.7633 22.0001 40.65V17H10.3334C9.41341 17 8.66675 17.7467 8.66675 18.6667Z" fill="black"/>
</svg>
