<svg width="44" height="44" viewBox="0 0 44 44" fill="none" xmlns="http://www.w3.org/2000/svg">
<rect width="44" height="44" rx="7" fill="#464646"/>
<path d="M21.9999 38.4452C31.0823 38.4452 38.4449 31.0825 38.4449 22.0002C38.4449 12.9179 31.0823 5.55518 21.9999 5.55518C12.9176 5.55518 5.55493 12.9179 5.55493 22.0002C5.55493 31.0825 12.9176 38.4452 21.9999 38.4452Z" fill="url(#paint0_linear_64_133)"/>
<path d="M17.8458 15.356H15.3267V28.686H17.8458V15.356Z" fill="white"/>
<path d="M28.6566 15.2974H26.1958V27.4557H28.6566V15.2974Z" fill="url(#paint1_linear_64_133)"/>
<path d="M32.6508 33.7451L30.4733 34.5751L15.3267 15.356H18.2567L32.6508 33.7451Z" fill="url(#paint2_linear_64_133)"/>
<defs>
<linearGradient id="paint0_linear_64_133" x1="21.9999" y1="38.4452" x2="21.9999" y2="5.55518" gradientUnits="userSpaceOnUse">
<stop stop-color="#0A070A"/>
<stop offset="0.465" stop-color="#2B2B2B"/>
<stop offset="1" stop-color="#4B4B4B"/>
</linearGradient>
<linearGradient id="paint1_linear_64_133" x1="27.4266" y1="29.5174" x2="27.4266" y2="17.359" gradientUnits="userSpaceOnUse">
<stop offset="0.377" stop-color="white" stop-opacity="0"/>
<stop offset="0.666" stop-color="white" stop-opacity="0.3"/>
<stop offset="0.988" stop-color="white"/>
</linearGradient>
<linearGradient id="paint2_linear_64_133" x1="20.4183" y1="19.8693" x2="32.5508" y2="35.7743" gradientUnits="userSpaceOnUse">
<stop offset="0.296" stop-color="white"/>
<stop offset="0.521" stop-color="white" stop-opacity="0.5"/>
<stop offset="0.838" stop-color="white" stop-opacity="0"/>
</linearGradient>
</defs>
</svg>
