<svg width="44" height="44" viewBox="0 0 44 44" fill="none" xmlns="http://www.w3.org/2000/svg">
<rect width="44" height="44" rx="7" fill="#464646"/>
<path fill-rule="evenodd" clip-rule="evenodd" d="M11.6275 11.2493C12.6542 12.0835 13.0392 12.0201 14.9675 11.891L33.1442 10.7993C33.53 10.7993 33.2092 10.4151 33.0808 10.351L30.0625 8.16847C29.4842 7.71931 28.7133 7.20514 27.2367 7.33347L9.63668 8.61681C8.99502 8.68014 8.86668 9.00097 9.12252 9.25847L11.6275 11.2493Z" fill="white"/>
<path fill-rule="evenodd" clip-rule="evenodd" d="M12.7184 15.485V34.61C12.7184 35.6375 13.2317 36.0225 14.3884 35.9591L34.3642 34.8033C35.5209 34.74 35.6501 34.0325 35.6501 33.1975V14.2008C35.6501 13.3675 35.3292 12.9175 34.6217 12.9816L13.7467 14.2008C12.9759 14.265 12.7184 14.6508 12.7184 15.485Z" fill="white"/>
<path fill-rule="evenodd" clip-rule="evenodd" d="M11.6275 11.249C12.6541 12.0832 13.0391 12.0199 14.9675 11.8907L33.1441 10.799C33.53 10.799 33.2091 10.4149 33.0808 10.3507L30.0625 8.1682C29.4841 7.71903 28.7133 7.20487 27.2366 7.3332L9.63663 8.61653C8.99496 8.67987 8.86663 9.0007 9.12246 9.2582L11.6275 11.249ZM12.7183 15.4849V34.6099C12.7183 35.6374 13.2316 36.0224 14.3883 35.959L34.3641 34.8032C35.5208 34.7399 35.65 34.0324 35.65 33.1974V14.2007C35.65 13.3674 35.3291 12.9174 34.6216 12.9815L13.7466 14.2007C12.9758 14.2649 12.7183 14.6507 12.7183 15.4849ZM32.4383 16.5107C32.5666 17.089 32.4383 17.6665 31.8591 17.7315L30.8966 17.9232V32.0424C30.0608 32.4915 29.29 32.7482 28.6483 32.7482C27.62 32.7482 27.3625 32.4274 26.5925 31.4649L20.2966 21.5815V31.144L22.2891 31.5932C22.2891 31.5932 22.2891 32.7482 20.6816 32.7482L16.2508 33.0049C16.1225 32.7482 16.2508 32.1065 16.7 31.9782L17.8566 31.6574V19.0149L16.2508 18.8865C16.1216 18.3082 16.4425 17.4749 17.3425 17.4099L22.0958 17.089L28.6475 27.1015V18.244L26.9766 18.0524C26.8483 17.3457 27.3616 16.8324 28.0041 16.769L32.4383 16.5107ZM8.15746 6.88487L26.4641 5.53653C28.7125 5.34403 29.2908 5.4732 30.7033 6.49903L36.5475 10.6065C37.5116 11.3132 37.8333 11.5057 37.8333 12.2749V34.8015C37.8333 36.2132 37.3191 37.0482 35.5208 37.1757L14.2608 38.4599C12.9108 38.524 12.2683 38.3315 11.5616 37.4332L7.25829 31.8499C6.48746 30.8224 6.16663 30.0532 6.16663 29.154V9.12987C6.16663 7.9757 6.68079 7.01237 8.15746 6.88487Z" fill="#424242"/>
</svg>
