<svg width="319" height="435" viewBox="0 0 319 435" fill="none" xmlns="http://www.w3.org/2000/svg">
<path d="M159.25 26.5417C144.652 26.5417 132.708 38.4855 132.708 53.0834V95.1519L159.25 121.694L185.792 95.1519V53.0834C185.792 45.7845 182.872 39.149 177.962 34.2388C173.184 29.4613 166.549 26.5417 159.25 26.5417Z" stroke="white" stroke-width="17.0625" stroke-miterlimit="10" stroke-linecap="round" stroke-linejoin="round"/>
<path d="M132.708 223.348V265.416C132.708 280.014 144.652 291.958 159.25 291.958C173.848 291.958 185.792 280.014 185.792 265.416V223.348L159.25 196.806L132.708 223.348Z" stroke="white" stroke-width="17.0625" stroke-miterlimit="10" stroke-linecap="round" stroke-linejoin="round"/>
<path d="M95.1519 132.708H53.0834C38.4855 132.708 26.5417 144.652 26.5417 159.25C26.5417 173.848 38.4855 185.792 53.0834 185.792H95.1519L121.694 159.25L95.1519 132.708Z" stroke="white" stroke-width="17.0625" stroke-miterlimit="10" stroke-linecap="round" stroke-linejoin="round"/>
<path d="M265.418 132.708H223.349L196.807 159.25L223.349 185.792H265.418C272.717 185.792 279.352 182.872 284.13 177.962C289.04 173.184 291.959 166.549 291.959 159.25C291.959 144.652 280.016 132.708 265.418 132.708Z" stroke="white" stroke-width="17.0625" stroke-miterlimit="10" stroke-linecap="round" stroke-linejoin="round"/>
<path d="M253.075 215.518L196.806 159.25L159.25 196.806L215.518 253.075C225.87 263.426 242.724 263.426 253.075 253.075C263.426 242.724 263.426 225.87 253.075 215.518Z" stroke="white" stroke-width="17.0625" stroke-miterlimit="10" stroke-linecap="round" stroke-linejoin="round"/>
<path d="M102.981 65.4248C97.8056 60.2491 91.0375 57.595 84.1367 57.595C77.3686 57.595 70.6004 60.2491 65.4248 65.4248C55.0736 75.776 55.0736 92.63 65.4248 102.981L121.693 159.25L159.25 121.693L102.981 65.4248Z" stroke="white" stroke-width="17.0625" stroke-miterlimit="10" stroke-linecap="round" stroke-linejoin="round"/>
<path d="M65.4248 253.074C55.0736 242.723 55.0736 225.869 65.4248 215.518L215.518 65.4248C225.869 55.0736 242.723 55.0736 253.074 65.4248C263.426 75.7761 263.426 92.63 253.074 102.981L102.981 253.074C92.63 263.426 75.7761 263.426 65.4248 253.074Z" stroke="white" stroke-width="17.0625" stroke-miterlimit="10" stroke-linecap="round" stroke-linejoin="round"/>
<path d="M53.9432 362.261C53.6705 359.511 52.5 357.375 50.4318 355.852C48.3636 354.33 45.5568 353.568 42.0114 353.568C39.6023 353.568 37.5682 353.909 35.9091 354.591C34.25 355.25 32.9773 356.17 32.0909 357.352C31.2273 358.534 30.7955 359.875 30.7955 361.375C30.75 362.625 31.0114 363.716 31.5795 364.648C32.1705 365.58 32.9773 366.386 34 367.068C35.0227 367.727 36.2045 368.307 37.5455 368.807C38.8864 369.284 40.3182 369.693 41.8409 370.034L48.1136 371.534C51.1591 372.216 53.9545 373.125 56.5 374.261C59.0455 375.398 61.25 376.795 63.1136 378.455C64.9773 380.114 66.4205 382.068 67.4432 384.318C68.4886 386.568 69.0227 389.148 69.0455 392.057C69.0227 396.33 67.9318 400.034 65.7727 403.17C63.6364 406.284 60.5455 408.705 56.5 410.432C52.4773 412.136 47.625 412.989 41.9432 412.989C36.3068 412.989 31.3977 412.125 27.2159 410.398C23.0568 408.67 19.8068 406.114 17.4659 402.727C15.1477 399.318 13.9318 395.102 13.8182 390.08H28.1023C28.2614 392.42 28.9318 394.375 30.1136 395.943C31.3182 397.489 32.9205 398.659 34.9205 399.455C36.9432 400.227 39.2273 400.614 41.7727 400.614C44.2727 400.614 46.4432 400.25 48.2841 399.523C50.1477 398.795 51.5909 397.784 52.6136 396.489C53.6364 395.193 54.1477 393.705 54.1477 392.023C54.1477 390.455 53.6818 389.136 52.75 388.068C51.8409 387 50.5 386.091 48.7273 385.341C46.9773 384.591 44.8295 383.909 42.2841 383.295L34.6818 381.386C28.7955 379.955 24.1477 377.716 20.7386 374.67C17.3295 371.625 15.6364 367.523 15.6591 362.364C15.6364 358.136 16.7614 354.443 19.0341 351.284C21.3295 348.125 24.4773 345.659 28.4773 343.886C32.4773 342.114 37.0227 341.227 42.1136 341.227C47.2955 341.227 51.8182 342.114 55.6818 343.886C59.5682 345.659 62.5909 348.125 64.75 351.284C66.9091 354.443 68.0227 358.102 68.0909 362.261H53.9432ZM106.554 359.636V370.545H75.0199V359.636H106.554ZM82.179 347.091H96.7017V395.909C96.7017 397.25 96.9063 398.295 97.3153 399.045C97.7244 399.773 98.2926 400.284 99.0199 400.58C99.7699 400.875 100.634 401.023 101.611 401.023C102.293 401.023 102.974 400.966 103.656 400.852C104.338 400.716 104.861 400.614 105.224 400.545L107.509 411.352C106.781 411.58 105.759 411.841 104.44 412.136C103.122 412.455 101.52 412.648 99.6335 412.716C96.1335 412.852 93.0653 412.386 90.429 411.318C87.8153 410.25 85.7813 408.591 84.3267 406.341C82.8722 404.091 82.1563 401.25 82.179 397.818V347.091ZM139.315 413.023C133.929 413.023 129.293 411.932 125.406 409.75C121.543 407.545 118.565 404.432 116.474 400.409C114.384 396.364 113.338 391.58 113.338 386.057C113.338 380.67 114.384 375.943 116.474 371.875C118.565 367.807 121.509 364.636 125.304 362.364C129.122 360.091 133.599 358.955 138.736 358.955C142.19 358.955 145.406 359.511 148.384 360.625C151.384 361.716 153.997 363.364 156.224 365.568C158.474 367.773 160.224 370.545 161.474 373.886C162.724 377.205 163.349 381.091 163.349 385.545V389.534H119.134V380.534H149.679C149.679 378.443 149.224 376.591 148.315 374.977C147.406 373.364 146.145 372.102 144.531 371.193C142.94 370.261 141.088 369.795 138.974 369.795C136.77 369.795 134.815 370.307 133.111 371.33C131.429 372.33 130.111 373.682 129.156 375.386C128.202 377.068 127.713 378.943 127.69 381.011V389.568C127.69 392.159 128.168 394.398 129.122 396.284C130.099 398.17 131.474 399.625 133.247 400.648C135.02 401.67 137.122 402.182 139.554 402.182C141.168 402.182 142.645 401.955 143.986 401.5C145.327 401.045 146.474 400.364 147.429 399.455C148.384 398.545 149.111 397.432 149.611 396.114L163.043 397C162.361 400.227 160.963 403.045 158.849 405.455C156.759 407.841 154.054 409.705 150.736 411.045C147.44 412.364 143.634 413.023 139.315 413.023ZM187.349 342.182V412H172.827V342.182H187.349ZM213.506 342.182V412H198.983V342.182H213.506ZM240.071 412.989C236.73 412.989 233.753 412.409 231.139 411.25C228.526 410.068 226.457 408.33 224.935 406.034C223.435 403.716 222.685 400.83 222.685 397.375C222.685 394.466 223.219 392.023 224.287 390.045C225.355 388.068 226.81 386.477 228.651 385.273C230.491 384.068 232.582 383.159 234.923 382.545C237.287 381.932 239.764 381.5 242.355 381.25C245.401 380.932 247.855 380.636 249.719 380.364C251.582 380.068 252.935 379.636 253.776 379.068C254.616 378.5 255.037 377.659 255.037 376.545V376.341C255.037 374.182 254.355 372.511 252.991 371.33C251.651 370.148 249.741 369.557 247.264 369.557C244.651 369.557 242.571 370.136 241.026 371.295C239.48 372.432 238.457 373.864 237.957 375.591L224.526 374.5C225.207 371.318 226.548 368.568 228.548 366.25C230.548 363.909 233.128 362.114 236.287 360.864C239.469 359.591 243.151 358.955 247.332 358.955C250.241 358.955 253.026 359.295 255.685 359.977C258.366 360.659 260.741 361.716 262.81 363.148C264.901 364.58 266.548 366.42 267.753 368.67C268.957 370.898 269.56 373.568 269.56 376.682V412H255.787V404.739H255.378C254.537 406.375 253.412 407.818 252.003 409.068C250.594 410.295 248.901 411.261 246.923 411.966C244.946 412.648 242.662 412.989 240.071 412.989ZM244.23 402.966C246.366 402.966 248.253 402.545 249.889 401.705C251.526 400.841 252.81 399.682 253.741 398.227C254.673 396.773 255.139 395.125 255.139 393.284V387.727C254.685 388.023 254.06 388.295 253.264 388.545C252.491 388.773 251.616 388.989 250.639 389.193C249.662 389.375 248.685 389.545 247.707 389.705C246.73 389.841 245.844 389.966 245.048 390.08C243.344 390.33 241.855 390.727 240.582 391.273C239.31 391.818 238.321 392.557 237.616 393.489C236.912 394.398 236.56 395.534 236.56 396.898C236.56 398.875 237.276 400.386 238.707 401.432C240.162 402.455 242.003 402.966 244.23 402.966ZM280.827 412V359.636H294.906V368.773H295.452C296.406 365.523 298.009 363.068 300.259 361.409C302.509 359.727 305.099 358.886 308.031 358.886C308.759 358.886 309.543 358.932 310.384 359.023C311.224 359.114 311.963 359.239 312.599 359.398V372.284C311.918 372.08 310.974 371.898 309.77 371.739C308.565 371.58 307.463 371.5 306.463 371.5C304.327 371.5 302.418 371.966 300.736 372.898C299.077 373.807 297.759 375.08 296.781 376.716C295.827 378.352 295.349 380.239 295.349 382.375V412H280.827Z" fill="white"/>
</svg>
