<svg width="44" height="44" viewBox="0 0 44 44" fill="none" xmlns="http://www.w3.org/2000/svg">
<rect width="44" height="44" rx="7" fill="#464646"/>
<path d="M22 38.6668C31.2048 38.6668 38.6667 31.2049 38.6667 22.0002C38.6667 12.7954 31.2048 5.3335 22 5.3335C12.7953 5.3335 5.33337 12.7954 5.33337 22.0002C5.33337 31.2049 12.7953 38.6668 22 38.6668Z" fill="#1976D2"/>
<path d="M27.0834 19.8583C27.0834 19.8583 25.6417 24.375 25.5333 24.7583C25.4917 24.375 24.4417 16.2583 24.4417 16.2583C21.9833 16.2583 20.675 18 19.9833 19.8583C19.9833 19.8583 18.2333 24.3916 18.0917 24.775C18.0833 24.4166 17.825 19.9083 17.825 19.9083C17.675 17.6416 15.6083 16.2666 13.9333 16.2666L15.95 28.5666C18.525 28.5583 19.9083 26.8166 20.6334 24.9666C20.6334 24.9666 22.175 20.9666 22.2417 20.7833C22.2584 20.9583 23.35 28.5666 23.35 28.5666C25.925 28.5666 27.3167 26.9333 28.0667 25.15L31.6667 16.2583C29.1167 16.2583 27.775 18 27.0834 19.8583Z" fill="white"/>
</svg>
